<svg width="148" height="76" viewBox="0 0 148 76" fill="none" xmlns="http://www.w3.org/2000/svg">
<path d="M60.0072 24.0027H66.0925L66.0875 23.9943H68.6713V22.1993H65.251L60.2913 11.563H57.5236L46.9475 34.0331V34.8571H53.1247L58.8749 21.3812L60.0072 24.0027Z" fill="white"/>
<path d="M67.4621 26.94L57.7091 26.9492L57.3966 27.6821H56.7331L54.4442 32.8398L56.4356 32.8423L56.8141 31.9907H63.1911L64.5415 34.8571H70.7688V34.0331L67.4621 26.94Z" fill="white"/>
<path d="M113.178 20.2121H106.993V25.4843H113.178V20.2121Z" fill="white"/>
<path d="M105.468 16.9171H117.675L113.837 11.6775H99.4395V34.7417H114.134L117.675 29.2397H105.468V16.9171Z" fill="white"/>
<path d="M83.5603 10.7457C88.5876 10.7457 94.1038 13.47 95.0464 19.9973H88.9018C88.0286 17.4845 86.1792 16.5076 83.5603 16.5076C79.86 16.5076 77.4499 19.16 77.4499 23.2104C77.4499 26.7361 79.8249 29.8439 83.5603 29.8439C86.2143 29.8439 88.3085 28.6213 88.972 25.9681H95.1166C94.174 32.9158 88.7631 35.6735 83.5611 35.6735C77.312 35.6735 71.0621 31.4843 71.0621 23.2447C71.0613 14.8321 77.3112 10.7457 83.5603 10.7457Z" fill="white"/>
<path d="M92.7902 18.7338H86.3966V20.8363H92.7902V18.7338Z" fill="white"/>
<path d="M96.1762 21.2133H89.7817V21.9654H96.1762V21.2133Z" fill="white"/>
<path d="M40.3106 11.6859C36.8836 11.6533 33.556 11.6859 30.1298 11.6859V34.7484H36.0705L36.0696 32.2498H37.4485V24.9846H36.0663L36.0613 16.9246H40.3115C41.9585 16.9246 42.8151 18.54 42.8151 20.1862C42.8151 21.7389 42.0271 23.2873 40.6599 23.5155V22.2202H39.617V27.5041H40.1736V28.7852H40.3115C45.7809 28.7852 48.5803 24.5676 48.5803 20.3508C48.6789 16.0021 45.8452 11.6859 40.3106 11.6859Z" fill="white"/>
<path d="M16.8303 25.45C17.91 25.5228 19.4017 25.5938 20.1479 26.4604H25.8221C25.2129 22.0832 21.7064 21.0954 17.7395 20.7068C15.7766 20.4762 14.6041 20.1135 14.6041 18.565C14.6041 16.8185 16.1869 16.4558 17.3886 16.4558C18.8242 16.4558 20.1437 17.116 20.173 18.6971H25.1836C25.2722 13.6881 21.2568 11.1511 17.3008 11.1511C13.1091 11.1511 9.32861 13.6881 9.32861 18.6971C9.32694 23.5071 13.0791 25.1877 16.8303 25.45Z" fill="white"/>
<path d="M19.9974 29.1704C19.389 29.727 18.4155 30.0286 17.4745 30.0286C15.8333 30.0286 14.2213 29.2389 14.2213 27.657H9.12212C9.03354 32.8289 13.196 35.2674 17.5339 35.2674C21.337 35.2674 25.1401 33.1766 25.8111 29.1696H19.9974V29.1704Z" fill="white"/>
<path d="M27.2359 28.735H22.0891V29.7554H27.2359V28.735Z" fill="white"/>
<path d="M24.8843 27.6252H17.2974V28.2913H24.8843V27.6252Z" fill="white"/>
<path d="M130.865 27.7832L130.869 30.7707L134.358 25.2511L134.017 22.7985L130.865 27.7832Z" fill="#FF6600"/>
<path d="M123.322 18.7288L123.445 21.7547L126.439 17.5514L126.329 15.7029L123.322 18.7288Z" fill="#FF6600"/>
<path d="M127.87 15.565L125.172 11.7234L118.041 11.7042L124.334 20.4736L127.87 15.565Z" fill="#FF6600"/>
<path d="M133.652 24.204L130.064 29.3709L133.279 34.7008L140.552 34.6849L133.652 24.204Z" fill="#FF6600"/>
<path d="M139.767 11.736H132.721L117.288 34.7159L124.646 34.7008L139.767 11.736Z" fill="white"/>
<path d="M29.01 42.6329L28.4568 43.4869V30.22H29.01V42.6329Z" fill="white"/>
<path d="M98.3188 20.5848H97.7656V6.19727L98.3188 7.04463V20.5848Z" fill="white"/>
<path d="M103.5 53.5107H97.3152V58.7829H103.5V53.5107Z" fill="white"/>
<path d="M95.791 50.2165H104.159V44.9769H89.7617V68.0412H104.456V62.5392H95.791V50.2165Z" fill="white"/>
<path d="M83.2836 56.0645C84.4368 55.1419 85.1939 53.4948 85.1939 52.0784C85.1939 47.7948 82.1964 44.9945 77.9128 44.9945H67.732V51.043H73.7613V50.2333H77.4841C78.7034 50.2333 79.2967 51.2536 79.2633 52.2756C79.2307 53.1982 78.6373 54.0873 77.4841 54.0873L73.7613 54.074H69.9013V58.9693L78.3741 58.9642C78.7694 58.9642 79.066 59.0629 79.3627 59.1949C79.9226 59.5893 80.2192 60.3147 80.1858 61.0066C80.0872 61.9292 79.5607 62.7857 78.4067 62.7857H68.5083V62.0746H62.479V68.0236H78.8346C83.5786 68.0236 86.1491 64.9601 86.1491 61.0066C86.1499 58.8982 85.1605 57.0205 83.2836 56.0645Z" fill="white"/>
<path d="M32.01 44.7463C36.7548 44.7463 41.9602 47.3176 42.8493 53.4773H37.0507C36.2267 51.1057 34.481 50.1839 32.01 50.1839C28.5177 50.1839 26.2439 52.6876 26.2439 56.5099C26.2439 59.8375 28.4851 62.7698 32.01 62.7698C34.5144 62.7698 36.4908 61.6158 37.1167 59.1121H42.9153C42.0262 65.6687 36.9195 68.271 32.01 68.271C26.1127 68.271 20.2146 64.3174 20.2146 56.5416C20.2146 48.6028 26.1127 44.7463 32.01 44.7463Z" fill="white"/>
<path d="M40.721 52.2848H34.6875V54.2695H40.721V52.2848Z" fill="white"/>
<path d="M43.9157 54.6246H37.8813V55.3349H43.9157V54.6246Z" fill="white"/>
<path d="M123.093 59.8776C125.366 58.3282 126.486 55.792 126.518 53.1563C126.518 49.1042 123.784 44.9852 118.216 44.9852C114.822 44.9527 111.495 44.9852 108.068 44.9852V68.0478H113.99L113.998 50.2248H118.182C119.896 50.2248 120.687 51.5753 120.687 53.0243C120.687 54.4742 119.863 55.9232 118.182 55.9232H117.947V62.0845L121.213 68.0478H127.605V67.1913L123.093 59.8776Z" fill="white"/>
<path d="M114.969 57.1934H113.062V63.0949H114.969V57.1934Z" fill="white"/>
<path d="M115.436 54.9313H114.57V60.8319H115.436V54.9313Z" fill="white"/>
<path d="M52.5514 49.6834L49.9985 45.0204H43.0458L49.335 55.6291L52.5514 49.6834Z" fill="white"/>
<path d="M58.5983 45.0329L51.1342 58.6608L51.2787 58.9057V67.9977H57.2863V58.9057L65.4941 45.0329H58.5983Z" fill="white"/>
<path d="M49.3141 60.4157L49.3166 62.7614L55.4804 51.4324L55.4771 49.0875L49.3141 60.4157Z" fill="white"/>
<path d="M50.5049 52.0759L50.5082 55.065L53.6587 49.233L53.6562 46.2455L50.5049 52.0759Z" fill="white"/>
<path d="M59.0085 75.2404L58.4169 74.3053V62.0102H59.0085V75.2404Z" fill="white"/>
<path d="M132.212 71.5501L131.266 71.0487L124.615 59.9904L125.094 59.7155L132.212 71.5501Z" fill="white"/>
<path d="M46.7945 53.4555L46.3976 53.6996L38.5858 40.5755L39.2727 40.8195L46.7945 53.4555Z" fill="white"/>
<path d="M112.009 1.32285C112.009 2.05322 111.417 2.64654 110.687 2.64654C109.955 2.64654 109.363 2.05405 109.363 1.32285C109.363 0.591648 109.955 0 110.687 0C111.417 0 112.009 0.592483 112.009 1.32285Z" fill="white"/>
<path d="M135.392 57.8812C135.392 58.6676 134.754 59.306 133.967 59.306C133.181 59.306 132.543 58.6684 132.543 57.8812C132.543 57.094 133.181 56.4564 133.967 56.4564C134.754 56.4573 135.392 57.0949 135.392 57.8812Z" fill="white"/>
<path d="M68.0128 11.736C68.0128 12.4321 67.4488 12.9954 66.7535 12.9954C66.0582 12.9954 65.4941 12.4313 65.4941 11.736C65.4941 11.0399 66.0582 10.4767 66.7535 10.4767C67.4496 10.4758 68.0128 11.0399 68.0128 11.736Z" fill="white"/>
<path d="M24.7899 50.3243C24.7899 50.9009 24.3227 51.3681 23.7461 51.3681C23.1695 51.3681 22.7024 50.9009 22.7024 50.3243C22.7024 49.7477 23.1695 49.2806 23.7461 49.2806C24.3227 49.2806 24.7899 49.7477 24.7899 50.3243Z" fill="white"/>
<path d="M2.08748 11.7043C2.08748 12.2809 1.62035 12.748 1.04374 12.748C0.467134 12.748 0 12.2809 0 11.7043C0 11.1277 0.467134 10.6605 1.04374 10.6605C1.62035 10.6605 2.08748 11.1277 2.08748 11.7043Z" fill="white"/>
<path d="M22.3021 41.3059C22.3021 41.8825 21.8349 42.3496 21.2583 42.3496C20.6817 42.3496 20.2146 41.8825 20.2146 41.3059C20.2146 40.7293 20.6817 40.2621 21.2583 40.2621C21.8349 40.2621 22.3021 40.7293 22.3021 41.3059Z" fill="white"/>
<path d="M146.333 21.8801C146.909 21.8801 147.376 21.4128 147.376 20.8363C147.376 20.2599 146.909 19.7926 146.333 19.7926C145.756 19.7926 145.289 20.2599 145.289 20.8363C145.289 21.4128 145.756 21.8801 146.333 21.8801Z" fill="white"/>
<path d="M96.1595 36.8535C96.1595 37.4301 95.6924 37.8972 95.1158 37.8972C94.5392 37.8972 94.072 37.4301 94.072 36.8535C94.072 36.2769 94.5392 35.8098 95.1158 35.8098C95.6924 35.8098 96.1595 36.2769 96.1595 36.8535Z" fill="white"/>
<path d="M81.6307 74.9562C81.6307 75.5328 81.1636 76 80.587 76C80.0103 76 79.5432 75.5328 79.5432 74.9562C79.5432 74.3796 80.0103 73.9125 80.587 73.9125C81.1636 73.9125 81.6307 74.3796 81.6307 74.9562Z" fill="white"/>
</svg>
